<svg width="22" height="26" viewBox="0 0 22 26" fill="none" xmlns="http://www.w3.org/2000/svg">
<path d="M21.985 24.0127L19.9485 6.9161C19.844 6.03703 19.1995 5.39886 18.4163 5.39886H15.1938V4.63414C15.1938 2.07883 13.3124 0 11 0C8.68762 0 6.80617 2.07883 6.80617 4.63414V5.39886H3.58369C2.80043 5.39886 2.15598 6.03708 2.05145 6.9161L0.014966 24.0127C-0.0451897 24.5189 0.0767048 24.9924 0.367935 25.3819C0.670791 25.7864 1.07857 26 1.5472 26H20.4528C20.9214 26 21.3292 25.7864 21.6323 25.3817C21.9233 24.9924 22.0452 24.5189 21.985 24.0127ZM7.49074 4.63414C7.49074 2.46634 9.06488 0.702711 11 0.702711C12.9351 0.702711 14.5093 2.46634 14.5093 4.63414V5.39886H7.49074V4.63414ZM21.0892 24.9537C20.9161 25.185 20.708 25.2973 20.4528 25.2973H1.5472C1.29204 25.2973 1.08392 25.185 0.911018 24.954C0.728721 24.7104 0.655851 24.4221 0.694636 24.0978L2.73117 7.00121C2.79311 6.47989 3.15167 6.10157 3.58374 6.10157H6.80622V8.34052C6.23964 8.49606 5.82063 9.02606 5.82063 9.656C5.82063 10.4077 6.4163 11.0193 7.14851 11.0193C7.88071 11.0193 8.47663 10.4077 8.47663 9.656C8.47663 9.02596 8.05747 8.49606 7.49079 8.34052V6.10157H14.5093V8.34052C13.9426 8.49606 13.5235 9.02601 13.5235 9.656C13.5235 10.4077 14.1193 11.0193 14.8516 11.0193C15.5839 11.0193 16.1795 10.4077 16.1795 9.656C16.1795 9.02606 15.7604 8.49606 15.1939 8.34052V6.10157H18.4164C18.8484 6.10157 19.207 6.47989 19.2689 7.00121L21.3055 24.0978C21.3442 24.4221 21.2713 24.7104 21.0892 24.9537ZM7.14846 8.99559C7.50321 8.99559 7.79201 9.2918 7.79201 9.656C7.79201 10.0202 7.50321 10.3166 7.14846 10.3166C6.79371 10.3166 6.5051 10.0202 6.5051 9.656C6.5051 9.29185 6.79371 8.99559 7.14846 8.99559ZM14.8515 8.99559C15.2063 8.99559 15.4949 9.2918 15.4949 9.656C15.4949 10.0202 15.2063 10.3166 14.8515 10.3166C14.4967 10.3166 14.208 10.0202 14.208 9.656C14.208 9.29185 14.4968 8.99559 14.8515 8.99559ZM15.7943 12.3019C14.2679 11.6433 12.4567 12.0891 11 13.4613C9.5433 12.0891 7.7323 11.6442 6.20541 12.3019C4.80199 12.9071 3.94893 14.3402 3.97925 16.0421C4.04787 19.9067 9.6973 23.4458 10.8288 24.1158C10.8819 24.1471 10.9409 24.1629 11 24.1629C11.059 24.1629 11.118 24.1471 11.1709 24.1158C12.3029 23.4456 17.9527 19.9062 18.0207 16.0414C18.0506 14.3395 17.1976 12.9067 15.7943 12.3019ZM11 23.4049C8.06702 21.6324 4.71082 18.6813 4.66382 16.0293C4.63819 14.5998 5.31361 13.4486 6.47062 12.9497C6.85055 12.7859 7.25368 12.7061 7.66572 12.7061C8.71705 12.7061 9.82657 13.2258 10.756 14.1961C10.8848 14.3306 11.1152 14.3306 11.244 14.1961C12.5378 12.8458 14.1799 12.368 15.5292 12.9497C16.686 13.4483 17.3614 14.5994 17.3362 16.0286C17.2896 18.6808 13.9332 21.6321 11 23.4049Z" fill="white"/>
</svg>
