<svg width="24" height="24" viewBox="0 0 24 24" fill="none" xmlns="http://www.w3.org/2000/svg">
<path d="M8.7 7.69999L11 5.39999V15C11 15.6 11.4 16 12 16C12.6 16 13 15.6 13 15V5.39999L15.3 7.69999C15.7 8.09999 16.3 8.09999 16.7 7.69999C17.1 7.29999 17.1 6.69999 16.7 6.29999L12.7 2.29999C12.6 2.19999 12.5 2.09999 12.4 2.09999C12.2 1.99999 11.9 1.99999 11.6 2.09999C11.5 2.09999 11.4 2.19999 11.3 2.29999L7.3 6.29999C6.9 6.69999 6.9 7.29999 7.3 7.69999C7.7 8.09999 8.3 8.09999 8.7 7.69999ZM21 14C20.4 14 20 14.4 20 15V19C20 19.6 19.6 20 19 20H5C4.4 20 4 19.6 4 19V15C4 14.4 3.6 14 3 14C2.4 14 2 14.4 2 15V19C2 20.7 3.3 22 5 22H19C20.7 22 22 20.7 22 19V15C22 14.4 21.6 14 21 14Z" fill="black"/>
</svg>
